<svg width="17" height="17" viewBox="0 0 17 17" fill="none" xmlns="http://www.w3.org/2000/svg">
<path d="M9.29635 7.98418L5.30728 2.8873C5.26041 2.82637 5.18697 2.79199 5.11041 2.79199H3.9026C3.79791 2.79199 3.7401 2.9123 3.80416 2.99355L7.95103 8.29199L3.80416 13.5904C3.78973 13.6089 3.78078 13.631 3.77833 13.6542C3.77587 13.6775 3.78002 13.701 3.79029 13.722C3.80056 13.743 3.81653 13.7608 3.8364 13.7731C3.85626 13.7855 3.8792 13.792 3.9026 13.792H5.11041C5.18697 13.792 5.26041 13.7561 5.30728 13.6967L9.29635 8.60137C9.43853 8.41855 9.43853 8.16543 9.29635 7.98418ZM14.0463 7.98418L10.0573 2.8873C10.0104 2.82637 9.93697 2.79199 9.86041 2.79199H8.6526C8.54791 2.79199 8.4901 2.9123 8.55416 2.99355L12.701 8.29199L8.55416 13.5904C8.53973 13.6089 8.53078 13.631 8.52833 13.6542C8.52587 13.6775 8.53002 13.701 8.54029 13.722C8.55056 13.743 8.56653 13.7608 8.58639 13.7731C8.60626 13.7855 8.6292 13.792 8.6526 13.792H9.86041C9.93697 13.792 10.0104 13.7561 10.0573 13.6967L14.0463 8.60137C14.1885 8.41855 14.1885 8.16543 14.0463 7.98418Z" fill="#8C8C8C"/>
</svg>
