<svg width="17" height="17" viewBox="0 0 17 17" fill="none" xmlns="http://www.w3.org/2000/svg">
<path d="M5.22929 8.29199L9.37617 2.99355C9.44023 2.9123 9.38242 2.79199 9.27773 2.79199H8.06992C7.99335 2.79199 7.91992 2.82793 7.87304 2.8873L3.88398 7.98418C3.81489 8.07221 3.77734 8.18087 3.77734 8.29277C3.77734 8.40467 3.81489 8.51334 3.88398 8.60137L7.87304 13.6967C7.91992 13.7576 7.99335 13.792 8.06992 13.792H9.27773C9.38242 13.792 9.44023 13.6717 9.37617 13.5904L5.22929 8.29199ZM9.97929 8.29199L14.1262 2.99355C14.1902 2.9123 14.1324 2.79199 14.0277 2.79199H12.8199C12.7434 2.79199 12.6699 2.82793 12.623 2.8873L8.63398 7.98418C8.56489 8.07221 8.52734 8.18087 8.52734 8.29277C8.52734 8.40467 8.56489 8.51334 8.63398 8.60137L12.623 13.6967C12.6699 13.7576 12.7434 13.792 12.8199 13.792H14.0277C14.1324 13.792 14.1902 13.6717 14.1262 13.5904L9.97929 8.29199Z" fill="#8C8C8C"/>
</svg>
