<svg width="17" height="17" viewBox="0 0 17 17" fill="none" xmlns="http://www.w3.org/2000/svg">
<path d="M12.2774 3.70221V2.49439C12.2774 2.38971 12.1571 2.33189 12.0758 2.39596L5.03205 7.89752C4.97221 7.94406 4.92378 8.00365 4.89047 8.07176C4.85716 8.13986 4.83984 8.21467 4.83984 8.29049C4.83984 8.3663 4.85716 8.44111 4.89047 8.50922C4.92378 8.57732 4.97221 8.63691 5.03205 8.68346L12.0758 14.185C12.1586 14.2491 12.2774 14.1913 12.2774 14.0866V12.8788C12.2774 12.8022 12.2414 12.7288 12.1821 12.6819L6.55705 8.29127L12.1821 3.89908C12.2414 3.85221 12.2774 3.77877 12.2774 3.70221Z" fill="#8C8C8C"/>
</svg>
