<svg width="17" height="17" viewBox="0 0 17 17" fill="none" xmlns="http://www.w3.org/2000/svg">
<path d="M12.9289 7.89812L5.88516 2.39656C5.86675 2.38207 5.84463 2.37306 5.82134 2.37058C5.79805 2.36809 5.77452 2.37222 5.75348 2.3825C5.73243 2.39278 5.7147 2.40879 5.70234 2.42869C5.68998 2.44859 5.68348 2.47157 5.6836 2.49499V3.70281C5.6836 3.77937 5.71953 3.85281 5.77891 3.89968L11.4039 8.29187L5.77891 12.6841C5.71797 12.7309 5.6836 12.8044 5.6836 12.8809V14.0887C5.6836 14.1934 5.80391 14.2512 5.88516 14.1872L12.9289 8.68562C12.9888 8.63892 13.0372 8.57919 13.0705 8.51095C13.1038 8.44272 13.1211 8.3678 13.1211 8.29187C13.1211 8.21594 13.1038 8.14102 13.0705 8.07279C13.0372 8.00456 12.9888 7.94482 12.9289 7.89812Z" fill="#8C8C8C"/>
</svg>
